:SAMPLES-PER-SECOND 30
:FULLY-SPECIFIED
:DEGREES
1116
root  5.41105 40.0362 30.6414 -179.392 29.4083 177.782
RightUpLeg  -8.1491 -9.26218 -1.45059
RightLeg  6.08823 -29.7659 2.31395
RightFoot  -2.40256 0.303514 -4.08789
RightToes  1.33877e-009 0 -3.6325e-017
Spine  4.94102 -1.57478 3.21832
Spine1  3.53879 -1.50972 -0.468107
HEad  -15.328 -20.9796 0.679101
LeftShoulder1  0.237606 2.84547 -29.9723
LeftArm  -9.03675 -8.84163 -30.6658
LeftForeArm  8.60197 -18.2764 -4.69184
LeftHand  -0.052737 4.83718 6.98833
RightShoulder  -0.309169 -4.44062 25.8411
RightArm  6.61407 -9.52739 45.4172
RightForeArm  9.55947 2.54996 4.46341
RightHand  -0.119595 0.504669 -2.43655
LeftUpLeg  5.62991 12.304 6.16676
LeftLeg  3.71251 39.1779 -2.69924
LeftFoot  -1.84091 0.529821 -6.24685
LeftToes  -1.45701e-009 4.75788e-011 -4.21586e-011
1117
root  5.70481 39.9976 30.3577 -179.567 32.4613 177.95
RightUpLeg  -7.66448 -9.06432 -0.928721
RightLeg  6.412 -26.856 2.40477
RightFoot  -2.92153 0.273401 -3.98229
RightToes  1.33877e-009 0 -3.6325e-017
Spine  5.1587 -1.77977 3.6901
Spine1  2.99116 -1.93038 0.720969
HEad  -14.5322 -18.5739 -0.324385
LeftShoulder1  0.304755 2.63968 -29.1341
LeftArm  -9.35637 -4.44703 -33.4545
LeftForeArm  10.4919 -22.0351 -4.28193
LeftHand  -0.0899734 4.18723 7.11557
RightShoulder  -0.29803 -4.39287 26.3096
RightArm  6.94455 -9.81611 45.4578
RightForeArm  11.002 4.28422 4.56979
RightHand  -0.106536 1.01532 -2.03776
LeftUpLeg  6.31553 15.9641 7.87622
LeftLeg  6.90375 37.3672 -1.6756
LeftFoot  -2.33119 0.709889 -8.81172
LeftToes  -1.45701e-009 4.75788e-011 -4.21586e-011
1118
root  6.07299 39.9138 30.0899 179.932 35.7261 177.791
RightUpLeg  -7.63448 -8.77271 -0.406858
RightLeg  8.14846 -23.7405 1.4923
RightFoot  -3.90074 0.231902 -3.96035
RightToes  1.33877e-009 0 -3.6325e-017
Spine  4.84237 -1.7503 4.04027
Spine1  3.6207 -2.14632 2.18797
HEad  -13.7898 -16.615 -1.24849
LeftShoulder1  0.234065 2.84811 -29.5649
LeftArm  -8.21204 -2.07858 -35.1826
LeftForeArm  12.2148 -24.3161 -4.54291
LeftHand  -0.0912738 4.0712 6.53947
RightShoulder  -0.367737 -4.60742 26.2635
RightArm  6.07749 -10.1094 46.057
RightForeArm  11.1104 6.57094 4.27308
RightHand  -0.10719 0.784695 -2.11825
LeftUpLeg  6.89538 27.1408 10.3963
LeftLeg  11.8136 27.7374 1.38692
LeftFoot  -2.54309 0.970997 -12.4213
LeftToes  -1.45701e-009 4.75788e-011 -4.21586e-011
1119
root  6.48478 39.7623 29.8567 179.949 38.7435 178.24
RightUpLeg  -7.53941 -8.62799 0.451044
RightLeg  9.60563 -20.8889 1.26787
RightFoot  -5.28842 0.16008 -3.70985
RightToes  1.33877e-009 0 -3.6325e-017
Spine  4.54647 -2.05397 5.00717
Spine1  3.8766 -2.51142 2.99902
HEad  -13.1371 -14.7753 -2.12069
LeftShoulder1  0.135274 3.12645 -29.7254
LeftArm  -7.51097 -0.13772 -36.4479
LeftForeArm  15.5194 -25.5656 -4.65794
LeftHand  -0.0647263 4.46177 5.84066
RightShoulder  -0.465437 -4.87566 27.0519
RightArm  5.68181 -9.55018 46.1686
RightForeArm  9.0488 7.81185 4.21983
RightHand  -0.130916 2.00962 -2.24047
LeftUpLeg  6.38605 40.1156 13.564
LeftLeg  18.0217 14.7404 5.81436
LeftFoot  -2.46755 1.35368 -17.01
LeftToes  -1.45701e-009 4.75788e-011 -4.21586e-011
1120
root  6.92323 39.6305 29.6575 179.751 41.8496 178.574
RightUpLeg  -7.14581 -8.50071 1.23852
RightLeg  10.8178 -18.1108 1.15004
RightFoot  -6.45868 0.11486 -3.70692
RightToes  1.33877e-009 0 -3.6325e-017
Spine  4.49274 -2.15051 5.73026
Spine1  4.27192 -2.667 3.90877
HEad  -12.2659 -13.1341 -2.55634
LeftShoulder1  0.0905547 3.25503 -30.265
LeftArm  -6.55941 1.1292 -37.4458
LeftForeArm  18.7061 -26.116 -4.60785
LeftHand  -0.0402103 5.02057 5.82866
RightShoulder  -0.53133 -5.05901 27.3701
RightArm  6.03347 -8.9351 46.4103
RightForeArm  7.72892 9.19135 4.42769
RightHand  -0.14361 1.04665 -2.69627
LeftUpLeg  4.33931 36.6222 14.4761
LeftLeg  25.2338 15.3569 8.09095
LeftFoot  -0.264887 1.75351 -18.15
LeftToes  -1.45701e-009 4.75788e-011 -4.21586e-011
1121
root  7.33838 39.5084 29.4776 179.333 45.0965 178.856
RightUpLeg  -6.51411 -8.46642 1.81012
RightLeg  12.0133 -15.1076 1.3106
RightFoot  -7.71331 0.0603185 -3.56209
RightToes  1.33877e-009 0 -3.6325e-017
Spine  5.04982 -2.41091 5.96212
Spine1  4.41417 -2.98898 4.83438
HEad  -12.4514 -11.5427 -3.25808
LeftShoulder1  0.0119503 3.47106 -30.7875
LeftArm  -5.98791 2.51388 -38.3947
LeftForeArm  21.6718 -26.0495 -4.43285
LeftHand  -0.0457943 4.73842 4.36893
RightShoulder  -0.481958 -4.91005 27.4029
RightArm  6.88148 -7.34721 46.7959
RightForeArm  7.92882 9.68974 4.74266
RightHand  -0.142154 1.07455 -2.66091
LeftUpLeg  1.68137 32.3675 14.9865
LeftLeg  32.7843 13.2388 9.37006
LeftFoot  4.16323 1.5587 -11.7561
LeftToes  -1.45701e-009 4.75788e-011 -4.21586e-011
1122
root  7.71823 39.3892 29.2712 179.082 48.3815 179.089
RightUpLeg  -6.22131 -8.24762 2.38367
RightLeg  13.4504 -12.2733 1.17062
RightFoot  -8.89038 0.0185497 -3.66112
RightToes  1.33877e-009 0 -3.6325e-017
Spine  5.04487 -2.52348 6.35329
Spine1  5.41328 -3.19647 5.71854
HEad  -12.8353 -10.7381 -3.74642
LeftShoulder1  -0.036897 3.60163 -31.7883
LeftArm  -3.76717 2.88221 -39.127
LeftForeArm  20.8226 -24.8461 -4.21315
LeftHand  -0.0396156 4.87474 3.81168
RightShoulder  -0.404005 -4.69271 27.0126
RightArm  7.59896 -4.76448 47.381
RightForeArm  8.43941 9.33339 5.07752
RightHand  -0.186574 1.58496 -3.26566
LeftUpLeg  -1.0314 26.8821 14.4125
LeftLeg  38.512 9.42902 8.25257
LeftFoot  7.28504 1.09338 -6.85012
LeftToes  -1.45701e-009 4.75788e-011 -4.21586e-011
1123
root  8.098 39.2671 29.0725 179.241 51.593 179.401
RightUpLeg  -6.24452 -7.74622 3.12165
RightLeg  14.808 -9.72306 0.859122
RightFoot  -9.99323 -0.0260704 -3.5292
RightToes  1.33877e-009 0 -3.6325e-017
Spine  5.00119 -2.66071 7.08298
Spine1  6.02112 -3.20456 5.84622
HEad  -13.2917 -9.75253 -3.94084
LeftShoulder1  -0.0178268 3.5497 -31.7888
LeftArm  -0.908476 3.34219 -40.2801
LeftForeArm  18.8023 -22.6315 -4.00942
LeftHand  -0.00478401 6.23188 3.47859
RightShoulder  -0.398662 -4.6696 27.1415
RightArm  9.55061 -1.49316 47.6242
RightForeArm  8.80578 8.02369 5.90548
RightHand  -0.208752 1.40444 -3.71461
LeftUpLeg  -3.59882 21.975 13.5351
LeftLeg  42.5619 2.81299 3.16239
LeftFoot  5.33558 1.26518 -8.83719
LeftToes  -1.45701e-009 4.75788e-011 -4.21586e-011
1124
root  8.47346 39.2307 28.8282 178.587 54.7971 178.782
RightUpLeg  -5.84663 -7.63159 3.11625
RightLeg  15.5828 -6.83356 0.749594
RightFoot  -10.69 -0.0525133 -3.46006
RightToes  1.33877e-009 0 -3.6325e-017
Spine  5.5837 -2.75369 7.60703
Spine1  5.80762 -2.95345 5.23328
HEad  -13.4739 -9.30461 -3.9947
LeftShoulder1  0.0974082 3.2412 -30.8962
LeftArm  0.358511 4.34894 -41.7831
LeftForeArm  18.866 -20.0731 -4.48177
LeftHand  0.00132788 6.77719 2.82303
RightShoulder  -0.539609 -5.05538 28.0015
RightArm  10.3351 0.879919 47.2375
RightForeArm  10.2391 8.1343 6.10831
RightHand  -0.194641 1.73378 -3.32939
LeftUpLeg  -5.68501 17.6226 11.7511
LeftLeg  45.1961 -1.15955 -0.817611
LeftFoot  3.71715 1.20782 -9.29146
LeftToes  -1.45701e-009 4.75788e-011 -4.21586e-011
1125
root  8.92964 39.2409 28.5546 177.702 57.8064 177.572
RightUpLeg  -5.16255 -7.61206 2.80975
RightLeg  15.4356 -4.03822 0.736604
RightFoot  -11.2668 -0.0740365 -3.4363
RightToes  1.33877e-009 0 -3.6325e-017
Spine  5.19227 -2.68398 7.96393
Spine1  6.17757 -2.66905 4.52663
HEad  -13.6773 -9.94088 -5.2315
LeftShoulder1  0.141503 3.12203 -30.9639
LeftArm  -0.545484 4.50523 -42.3619
LeftForeArm  21.8737 -16.8197 -5.58232
LeftHand  -0.0143539 6.65488 1.83589
RightShoulder  -0.514576 -5.00466 27.4423
RightArm  9.61181 1.27555 47.6657
RightForeArm  10.4799 10.0315 5.65658
RightHand  -0.170098 1.226 -3.12372
LeftUpLeg  -7.90845 13.2929 9.31822
LeftLeg  46.518 -0.929272 -0.635846
LeftFoot  2.31062 1.05488 -8.91204
LeftToes  -1.45701e-009 4.75788e-011 -4.21586e-011
1126
root  9.36853 39.2676 28.301 176.606 60.9877 176.335
RightUpLeg  -4.03466 -7.4794 2.37733
RightLeg  14.7372 -0.661352 0.972697
RightFoot  -11.7376 -0.0919562 -3.67386
RightToes  1.33877e-009 0 -3.6325e-017
Spine  5.4296 -2.52651 8.26405
Spine1  6.05844 -2.29316 3.61406
HEad  -13.8976 -10.1416 -6.88624
LeftShoulder1  0.134471 3.14473 -31.3405
LeftArm  -1.9111 4.88967 -42.4561
LeftForeArm  24.2052 -14.4758 -6.4534
LeftHand  -0.0147232 7.57684 1.28843
RightShoulder  -0.430987 -4.79292 26.5222
RightArm  10.6051 2.73765 48.198
RightForeArm  8.17683 10.3483 5.97955
RightHand  -0.192106 2.3447 -3.07615
LeftUpLeg  -9.98363 9.03703 6.99692
LeftLeg  46.8879 1.37819 1.98118
LeftFoot  1.51348 0.843885 -7.56904
LeftToes  -1.45701e-009 4.75788e-011 -4.21586e-011
1127
root  9.86158 39.3039 28.0439 175.713 64.1936 175.139
RightUpLeg  -3.31496 -7.30042 2.10797
RightLeg  14.4791 2.44503 1.14787
RightFoot  -11.9186 -0.100711 -3.99773
RightToes  1.33877e-009 0 -3.6325e-017
Spine  5.16938 -2.15774 9.00573
Spine1  6.39599 -1.64098 2.15036
HEad  -15.5655 -8.88655 -6.41838
LeftShoulder1  0.157818 3.08136 -31.2529
LeftArm  -3.46736 5.65231 -42.772
LeftForeArm  26.3169 -12.9548 -6.80333
LeftHand  -0.0272041 7.36367 0.71201
RightShoulder  -0.406321 -4.72638 26.281
RightArm  10.5573 2.86784 48.2295
RightForeArm  7.40834 12.9829 5.37256
RightHand  -0.193876 2.01417 -3.21836
LeftUpLeg  -12.1763 5.24305 5.1532
LeftLeg  46.3357 3.4126 4.2195
LeftFoot  0.854833 0.625676 -5.89654
LeftToes  -1.45701e-009 4.75788e-011 -4.21586e-011
1128
root  10.3936 39.3288 27.8094 174.1 67.4588 173.431
RightUpLeg  -2.38412 -7.36467 1.5935
RightLeg  14.328 5.63476 1.49189
RightFoot  -12.2769 -0.118454 -4.34778
RightToes  1.33877e-009 0 -3.6325e-017
Spine  5.45493 -1.78317 8.8309
Spine1  6.35228 -1.1351 1.31177
HEad  -17.4416 -6.70347 -5.47879
LeftShoulder1  0.0505169 3.36929 -31.4031
LeftArm  -3.52284 6.85297 -42.6234
LeftForeArm  25.9487 -12.5344 -6.98102
LeftHand  -0.0199938 7.88825 0.972524
RightShoulder  -0.413689 -4.73719 26.5846
RightArm  13.2767 5.13967 47.5341
RightForeArm  6.16212 13.1749 5.95971
RightHand  -0.198166 1.76819 -3.37842
LeftUpLeg  -13.9338 2.67768 3.52587
LeftLeg  44.6357 4.65553 5.29665
LeftFoot  -0.0318774 0.390872 -3.94639
LeftToes  -1.45701e-009 4.75788e-011 -4.21586e-011
1129
root  10.9372 39.3235 27.5937 172.886 70.3702 172.397
RightUpLeg  -1.15388 -7.35452 1.33769
RightLeg  14.0429 8.48523 1.88378
RightFoot  -12.8144 -0.144612 -4.50815
RightToes  1.33877e-009 0 -3.6325e-017
Spine  5.80691 -1.49938 9.42116
Spine1  6.55897 -0.548401 -0.240721
HEad  -18.6941 -6.06581 -5.44562
LeftShoulder1  0.0739786 3.30671 -31.506
LeftArm  -3.8057 7.88596 -42.3731
LeftForeArm  24.4914 -12.1113 -7.09903
LeftHand  -0.00441718 8.26626 1.54359
RightShoulder  -0.470809 -4.89183 27.0485
RightArm  15.2015 6.84209 46.9298
RightForeArm  5.32874 14.012 6.1091
RightHand  -0.218042 2.16319 -3.53243
LeftUpLeg  -15.585 1.05711 2.55061
LeftLeg  42.048 4.61413 4.83211
LeftFoot  -1.36045 0.344511 -3.86882
LeftToes  -1.45701e-009 4.75788e-011 -4.21586e-011
1130
root  11.4871 39.3053 27.3875 171.729 72.7346 171.288
RightUpLeg  -0.0547201 -7.33848 1.07174
RightLeg  13.8027 10.7576 2.09759
RightFoot  -13.3856 -0.16879 -4.42716
RightToes  1.33877e-009 0 -3.6325e-017
Spine  5.89455 -1.27362 9.7907
Spine1  6.91408 -0.0888953 -1.64103
HEad  -20.198 -5.27988 -4.99263
LeftShoulder1  0.127281 3.16285 -31.2795
LeftArm  -4.63041 8.59873 -42.4173
LeftForeArm  24.2887 -11.4238 -7.13086
LeftHand  -0.00796844 7.54082 1.6456
RightShoulder  -0.494296 -4.95813 27.131
RightArm  16.6968 8.38938 46.6431
RightForeArm  4.57603 14.1686 6.37689
RightHand  -0.285734 3.68492 -3.91283
LeftUpLeg  -17.1393 0.3683 1.69871
LeftLeg  38.0103 2.80328 2.7317
LeftFoot  -2.27932 0.416382 -5.08131
LeftToes  -1.45701e-009 4.75788e-011 -4.21586e-011
